HIERARCHY
ROOT root
{
	OFFSET	0	13.1	24.9
	CHANNELS 6  Xposition Yposition Zposition Xrotation Yrotation Zrotation
	JOINT spine_1
	{
		OFFSET	0	9.99999	0
		CHANNELS 3  Xrotation Yrotation Zrotation
		JOINT spine_2
		{
			OFFSET	0	112	-10
			CHANNELS 3  Xrotation Yrotation Zrotation
			JOINT spine_3
			{
				OFFSET	0	206.5	19.3
				CHANNELS 3  Xrotation Yrotation Zrotation
				JOINT spine_4
				{
					OFFSET	0	110.4	14.6
					CHANNELS 3  Xrotation Yrotation Zrotation
					JOINT neck_1
					{
						OFFSET	0	71.8	-50.3
						CHANNELS 3  Xrotation Yrotation Zrotation
						JOINT neck_2
						{
							OFFSET	0	86.2	-25.8
							CHANNELS 3  Xrotation Yrotation Zrotation
							JOINT head_ee
							{
								OFFSET	0	179.8	-8.7
								CHANNELS 3  Xrotation Yrotation Zrotation
								End Site
								{
									OFFSET	1	0	0
								}
							}
						}
					}
					JOINT left_clavicle
					{
						OFFSET	-43.2	22.4	-70.8
						CHANNELS 3  Xrotation Yrotation Zrotation
						JOINT left_shoulder
						{
							OFFSET	-93.9	-5.79999	48.7
							CHANNELS 3  Xrotation Yrotation Zrotation
							JOINT left_elbow
							{
								OFFSET	-291.4	-30.8	15.2
								CHANNELS 3  Xrotation Yrotation Zrotation
								JOINT left_lowarm_twist
								{
									OFFSET	-110.7	-3.89999	13.6
									CHANNELS 3  Xrotation Yrotation Zrotation
									JOINT left_hand
									{
										OFFSET	-110.7	-3.89999	13.6
										CHANNELS 3  Xrotation Yrotation Zrotation
										JOINT left_ee
										{
											OFFSET	-80.8	-5.10001	12.1
											CHANNELS 3  Xrotation Yrotation Zrotation
											End Site
											{
												OFFSET	1	0	0
											}
										}
									}
								}
							}
						}
					}
					JOINT right_clavicle
					{
						OFFSET	43.2	22.4	-70.8
						CHANNELS 3  Xrotation Yrotation Zrotation
						JOINT right_shoulder
						{
							OFFSET	93.9	-5.79999	48.7
							CHANNELS 3  Xrotation Yrotation Zrotation
							JOINT right_elbow
							{
								OFFSET	291.4	-30.8	15.2
								CHANNELS 3  Xrotation Yrotation Zrotation
								JOINT right_lowarm_twist
								{
									OFFSET	110.7	-3.89999	13.6
									CHANNELS 3  Xrotation Yrotation Zrotation
									JOINT right_hand
									{
										OFFSET	110.7	-3.89999	13.6
										CHANNELS 3  Xrotation Yrotation Zrotation
										JOINT right_ee
										{
											OFFSET	80.8	-5.10001	12.1
											CHANNELS 3  Xrotation Yrotation Zrotation
											End Site
											{
												OFFSET	1	0	0
											}
										}
									}
								}
							}
						}
					}
				}
			}
		}
	}
	JOINT left_hip
	{
		OFFSET	-82.8	-127.5	0.300001
		CHANNELS 3  Xrotation Yrotation Zrotation
		JOINT left_knee
		{
			OFFSET	-28.2	-396.7	2.2
			CHANNELS 3  Xrotation Yrotation Zrotation
			JOINT left_ankle
			{
				OFFSET	-11.7	-411.3	35.4
				CHANNELS 3  Xrotation Yrotation Zrotation
				JOINT left_toes
				{
					OFFSET	0	-60	-88.6
					CHANNELS 3  Xrotation Yrotation Zrotation
					JOINT left_foot_ee
					{
						OFFSET	-22.5	-16.5	-42.2
						CHANNELS 3  Xrotation Yrotation Zrotation
						End Site
						{
							OFFSET	1	0	0
						}
					}
				}
			}
		}
	}
	JOINT right_hip
	{
		OFFSET	82.8	-127.5	0.300001
		CHANNELS 3  Xrotation Yrotation Zrotation
		JOINT right_knee
		{
			OFFSET	28.2	-396.7	2.2
			CHANNELS 3  Xrotation Yrotation Zrotation
			JOINT right_ankle
			{
				OFFSET	11.7	-411.3	35.4
				CHANNELS 3  Xrotation Yrotation Zrotation
				JOINT right_toes
				{
					OFFSET	0	-60	-88.6
					CHANNELS 3  Xrotation Yrotation Zrotation
					JOINT right_foot_ee
					{
						OFFSET	22.5	-16.5	-42.2
						CHANNELS 3  Xrotation Yrotation Zrotation
						End Site
						{
							OFFSET	1	0	0
						}
					}
				}
			}
		}
	}
}
MOTION
Frames: 12
Frame Time: 0.02
1806.03 673.841 -1496.76 -31.5955 69.7734 26.4726 4.12319 0.957472 4.15956 4.13255 0.691089 4.21193 4.17757 0.102353 4.26693 4.153 0.77435 4.19745 -15.2228 10.2802 -3.52182 -15.6327 21.7352 0.231065 -0.0 0.0 -0.0 -8.67921 23.6231 -9.32183 -28.184 -21.3142 75.094 0.248079 -7.00617 0.0151866 -34.8829 -2.42413 3.66946 1.50223 3.60939 11.515 -0.0 0.0 -0.0 11.7777 23.1412 -23.1673 23.6288 13.7889 -68.9323 3.22121 57.9123 -1.78265 14.0544 -0.279456 1.76909 2.9272 16.5047 -12.65 0.0 0.0 0.0 37.2622 8.62773 -6.83592 0.244827 -0.0101589 -0.0361972 4.92492 5.3288 -0.712301 -38.0526 0.0 0.0 -0.0 0.0 -0.0 -7.63227 2.11653 4.79097 -4.78324 -0.167176 -0.714837 40.9416 -0.30683 4.95371 -8.67831 0.0 0.0 0.0 0.0 0.0 
1784.66 672.91 -1493.04 -30.5305 69.0987 25.6276 4.26652 0.957551 4.14297 4.2758 0.692221 4.19538 4.32035 0.116378 4.25041 4.29601 0.785598 4.17893 -14.6726 10.2222 -3.70677 -15.0471 21.7418 -0.0759144 -0.0 0.0 -0.0 -8.738 23.4089 -9.48851 -28.0678 -22.2723 74.7594 0.272413 -7.68556 0.018298 -34.8407 -2.41993 3.66603 1.4356 4.07239 11.2457 -0.0 0.0 -0.0 12.144 23.6381 -23.9589 22.2801 13.9472 -68.6681 3.30622 58.5794 -1.85494 13.5106 -0.276765 1.69969 2.99026 17.1141 -12.7855 0.0 0.0 0.0 37.0537 8.02055 -7.3805 -1.99204 0.0768802 0.296028 6.16736 5.29908 -0.888683 -37.3286 0.0 0.0 -0.0 0.0 -0.0 -8.25992 2.16728 5.12597 -5.73748 -0.193348 -0.858939 40.8188 -0.503556 4.94208 -6.92402 0.0 0.0 0.0 0.0 0.0 
1763.79 676.525 -1491.01 -30.3724 68.7913 25.7513 4.20552 0.953486 4.19968 4.21507 0.684566 4.25171 4.25973 0.0965583 4.30529 4.23471 0.77467 4.23625 -13.9086 10.3819 -3.35146 -14.2501 21.8396 0.160462 -0.0 0.0 -0.0 -8.48439 22.9591 -9.28738 -27.8901 -23.0206 74.8372 0.292175 -8.23571 0.021035 -34.8959 -2.42542 3.67051 1.38652 4.49147 11.078 -0.0 0.0 -0.0 12.3516 23.9304 -24.4071 21.3987 14.0159 -68.466 3.33438 58.7949 -1.87899 13.1778 -0.274793 1.65722 3.00082 17.4056 -12.7156 0.0 0.0 0.0 36.9594 7.98853 -7.77967 -3.75873 0.136406 0.560618 5.05609 6.15917 -0.73054 -36.8698 0.0 0.0 -0.0 0.0 -0.0 -8.89224 2.65278 5.52393 -6.45822 -0.211523 -0.968053 40.4611 -0.578981 4.91135 -5.61495 0.0 0.0 0.0 0.0 0.0 
1743.2 679.344 -1489.56 -32.1099 69.1221 27.366 4.44511 0.845816 4.24345 4.45495 0.574336 4.28856 4.49093 -0.000501806 4.32677 4.46546 0.682204 4.27275 -12.2692 10.1196 -3.61535 -12.501 21.5054 -0.508679 -0.0 0.0 -0.0 -8.18773 22.1612 -9.14121 -27.3535 -23.8891 74.6148 0.338563 -9.52089 0.0281946 -34.4842 -2.38457 3.63703 1.35159 4.85239 10.9831 -0.0 0.0 -0.0 12.6276 24.3965 -24.9952 19.1039 13.8327 -68.4466 3.28877 58.4445 -1.84005 12.8796 -0.272817 1.61919 3.0487 18.2645 -12.6202 0.0 0.0 0.0 37.3197 8.25257 -6.84659 -6.56316 0.214054 0.983959 8.95962 6.59814 -1.2784 -35.2244 0.0 0.0 -0.0 0.0 -0.0 -9.07401 3.13987 5.90034 -7.11264 -0.226834 -1.06731 40.521 -0.650191 4.91599 -4.34736 0.0 0.0 0.0 0.0 0.0 
1717.82 680.069 -1481.08 -33.3623 69.3857 28.864 4.44836 0.825796 4.24379 4.4582 0.554334 4.28763 4.49266 -0.0201289 4.3232 4.4672 0.66226 4.27232 -11.1318 10.0941 -3.58256 -11.2993 21.4288 -0.712581 -0.0 0.0 -0.0 -7.99077 21.9444 -8.92556 -27.3633 -25.2409 73.7208 0.375369 -10.5339 0.0346036 -34.6936 -2.40532 3.6541 1.32647 4.79349 10.792 -0.0 0.0 -0.0 12.7046 24.5864 -25.1529 17.7971 12.6839 -67.8722 3.25144 58.1524 -1.80829 12.5632 -0.270503 1.57884 2.95332 17.696 -12.2506 0.0 0.0 0.0 37.2288 8.35129 -6.54005 -7.454 0.23437 1.11916 6.66318 7.31506 -0.957599 -35.2867 0.0 0.0 -0.0 0.0 -0.0 -9.5777 3.35991 6.74702 -7.52455 -0.235889 -1.12988 40.5204 -0.60828 4.9162 -3.45369 0.0 0.0 0.0 0.0 0.0 
1695.99 680.491 -1477.08 -34.4352 69.2478 29.6396 4.58268 0.784566 4.2651 4.59265 0.511835 4.30627 4.62363 -0.0549222 4.33618 4.59795 0.629945 4.29062 -10.2713 10.0316 -3.61405 -10.3888 21.321 -0.931843 -0.0 0.0 -0.0 -7.7623 21.4678 -8.75021 -27.4433 -26.3975 72.6419 0.401747 -11.2558 0.0395893 -34.7301 -2.40893 3.65706 1.31342 4.75257 10.6887 -0.0 0.0 -0.0 12.9561 25.0938 -25.679 16.7652 11.9351 -67.3904 3.22443 57.938 -1.78538 12.327 -0.268631 1.54873 2.92623 17.6384 -12.0944 0.0 0.0 0.0 37.2681 8.6524 -6.30296 -8.71869 0.259594 1.31158 7.01966 7.84836 -1.00763 -34.8186 0.0 0.0 -0.0 0.0 -0.0 -9.75822 3.56872 7.26325 -8.15516 -0.24888 -1.22577 40.6411 -0.866341 4.92483 -2.8076 0.0 0.0 0.0 0.0 0.0 
1666.31 685.189 -1465.0 -34.2664 69.4936 29.1274 4.60788 0.788649 4.56352 4.61932 0.496978 4.60433 4.65058 -0.106499 4.6298 4.62123 0.625243 4.58871 -8.91099 9.91279 -6.1985 -8.88185 22.8483 -3.79064 -0.0 0.0 -0.0 -7.67415 21.761 -8.51813 -26.6207 -27.6484 71.2343 0.460198 -12.8424 0.051792 -34.3426 -2.37058 3.62545 1.49641 4.32551 11.7531 -0.0 0.0 -0.0 12.8378 26.0385 -25.2983 13.6708 10.9668 -67.5203 3.07357 56.6916 -1.6584 13.0279 -0.273824 1.6381 3.0957 20.1617 -11.9947 0.0 0.0 0.0 36.4897 8.10697 -4.24988 -15.4202 0.322064 2.33735 18.4569 7.89724 -2.53778 -33.4082 0.0 0.0 -0.0 0.0 -0.0 -9.98537 7.43361 8.99139 -10.7892 -0.291702 -1.62765 39.9831 -0.92054 4.86838 -0.775424 0.0 0.0 0.0 0.0 0.0 
1644.28 688.55 -1456.5 -33.2847 70.154 28.0815 4.45165 0.623107 4.21973 4.46148 0.35358 4.25075 4.48072 -0.215647 4.25996 4.4557 0.459222 4.24066 -8.22116 10.9617 -6.58538 -8.1419 25.0835 -4.08926 -0.0 0.0 -0.0 -7.32652 21.3292 -8.14465 -24.5823 -28.5937 71.3473 0.47459 -13.2301 0.0550384 -34.5779 -2.39384 3.64467 2.08721 5.45097 16.1915 -0.0 0.0 -0.0 12.6708 25.5188 -24.973 11.8538 10.2738 -67.5189 2.97281 55.8102 -1.57461 12.4393 -0.269537 1.56304 3.12218 20.9947 -11.7529 0.0 0.0 0.0 34.5489 9.10968 -2.84488 -19.9829 0.295843 3.03674 25.7438 8.67238 -3.4187 -32.1274 0.0 0.0 -0.0 0.0 -0.0 -8.79906 9.26891 9.88574 -18.4378 -0.310959 -2.80016 38.9372 -5.95884 4.76514 1.8785 -0.0 -0.0 0.0 0.0 0.0 
1618.08 689.595 -1451.21 -30.204 70.646 24.8415 4.16284 0.534408 4.15556 4.17241 0.269133 4.18108 4.18602 -0.311803 4.17812 4.16184 0.351376 4.17498 -6.94214 10.778 -7.51011 -6.71408 25.4086 -5.38163 -0.0 0.0 -0.0 -7.33463 21.5537 -8.08272 -23.3912 -29.2334 70.974 0.497057 -13.8328 0.0602953 -34.7153 -2.40747 3.65586 2.19753 4.96973 16.7698 -0.0 0.0 -0.0 12.4039 26.3012 -24.2702 9.89773 9.39249 -66.9566 2.77298 53.936 -1.41116 12.0069 -0.265895 1.50793 3.14125 21.2197 -11.7668 0.0 0.0 0.0 33.0986 9.47928 -1.98481 -25.0345 0.202013 3.806 30.3457 9.32904 -3.93111 -31.2573 0.0 0.0 -0.0 0.0 -0.0 -8.44038 11.2261 10.8537 -23.208 -0.243768 -3.52882 40.4486 -4.79582 4.89641 4.34802 -0.0 -0.0 0.0 0.0 0.0 
1596.34 693.028 -1445.67 -28.2684 71.3886 23.1627 4.05302 0.445342 4.09139 4.06231 0.184318 4.11139 4.06996 -0.39467 4.09658 4.04664 0.256699 4.10752 -6.70379 11.3121 -7.30132 -6.46316 26.2501 -5.12154 -0.0 0.0 -0.0 -7.37782 22.2032 -7.93122 -20.2509 -32.0687 68.7678 0.526711 -14.6236 0.067584 -36.3509 -2.5717 3.78645 2.51681 6.30037 19.4701 -0.0 0.0 -0.0 12.483 25.7952 -24.5099 7.45817 8.29598 -67.9155 2.44881 50.4916 -1.15485 12.003 -0.265861 1.50744 3.11118 21.3505 -11.4991 0.0 0.0 0.0 30.3399 8.13134 -0.583603 -26.1128 0.173221 3.96896 35.2221 10.1293 -4.43401 -32.3459 0.0 0.0 -0.0 0.0 -0.0 -7.61649 13.0386 11.0791 -27.1921 -0.141332 -4.13154 38.9996 -6.03424 4.77079 6.33222 -0.0 -0.0 0.0 0.0 0.0 
1577.04 691.065 -1445.16 -26.6796 72.2524 21.7121 3.98279 0.424964 4.08334 3.99205 0.164492 4.10206 3.99844 -0.418142 4.08404 3.97525 0.231544 4.09883 -7.23618 10.4736 -7.70763 -7.02241 24.9802 -5.57226 -0.0 0.0 -0.0 -6.62936 19.9126 -7.54041 -18.6447 -32.2325 67.8736 0.529739 -14.7041 0.0683507 -35.695 -2.5054 3.73464 2.42237 6.00689 18.7069 -0.0 0.0 -0.0 12.9298 26.3803 -25.4697 5.38425 8.58323 -68.5737 2.07844 45.83 -0.87869 10.6425 -0.251682 1.33425 3.20245 20.6598 -12.462 0.0 0.0 0.0 29.9598 8.91718 -0.330968 -30.0756 0.0411648 4.56267 38.6788 13.2641 -4.7894 -30.7697 0.0 0.0 -0.0 0.0 -0.0 -6.71897 14.3046 10.2172 -32.5578 0.0623727 -4.92949 38.7557 -6.93557 4.75082 7.50569 -0.0 -0.0 0.0 0.0 0.0 
1555.85 694.338 -1444.77 -27.6713 73.4428 22.7235 3.93979 0.248939 3.89149 3.94821 0.0010006 3.89944 3.94347 -0.555295 3.85976 3.9227 0.06077 3.89896 -7.73583 11.1166 -6.88625 -7.60509 25.5865 -4.47731 -0.0 0.0 -0.0 -6.48861 18.1207 -7.85996 -14.9184 -33.532 66.6709 0.543639 -15.0725 0.0719219 -35.3495 -2.47071 3.70705 2.47616 7.02678 19.449 -0.0 0.0 -0.0 12.6363 23.4792 -25.1076 3.6421 7.63527 -69.4335 1.7723 41.2776 -0.667578 10.4262 -0.249048 1.30673 2.96545 19.0751 -11.6566 0.0 0.0 0.0 26.5452 7.2098 0.687233 -26.0914 0.173823 3.96573 39.3367 12.02 -4.8354 -31.9481 0.0 0.0 -0.0 0.0 -0.0 -4.34232 15.865 9.72176 -36.6033 0.264932 -5.51689 35.0529 -6.69835 4.40441 9.76544 -0.0 -0.0 0.0 0.0 0.0 
